<svg width="18" height="18" viewBox="0 0 18 18" fill="none" xmlns="http://www.w3.org/2000/svg">
<g id="Adornment Begin">
<path id="Vector" d="M16.3472 6.39848C16.3472 5.98598 16.0097 5.64848 15.5972 5.64848H10.3472C9.93471 5.64848 9.59721 5.98598 9.59721 6.39848C9.59721 6.81098 9.93471 7.14848 10.3472 7.14848H15.5972C16.0097 7.14848 16.3472 6.81098 16.3472 6.39848ZM9.59721 12.3985C9.59721 12.811 9.93471 13.1485 10.3472 13.1485H15.5972C16.0097 13.1485 16.3472 12.811 16.3472 12.3985C16.3472 11.986 16.0097 11.6485 15.5972 11.6485H10.3472C9.93471 11.6485 9.59721 11.986 9.59721 12.3985ZM7.69971 3.87098C7.99221 4.16348 7.99221 4.63598 7.69971 4.92848L4.52721 8.11598C4.23471 8.40848 3.76221 8.40848 3.46221 8.11598L1.87221 6.51848C1.57971 6.22598 1.57971 5.75348 1.87221 5.46098C2.16471 5.16848 2.63721 5.16848 2.92971 5.46098L3.99471 6.52598L6.64971 3.87098C6.93471 3.58598 7.41471 3.58598 7.69971 3.87098ZM7.70721 9.87848C7.99971 10.171 7.99971 10.6435 7.70721 10.936L4.53471 14.1235C4.24221 14.416 3.76971 14.416 3.46971 14.1235L1.87221 12.5185C1.57971 12.226 1.57971 11.7535 1.87221 11.461C2.16471 11.1685 2.63721 11.1685 2.92971 11.461L3.99471 12.526L6.64971 9.87098C6.93471 9.58598 7.41471 9.58598 7.70721 9.87848Z" fill="#878787"/>
</g>
</svg>
