<svg width="18" height="18" fill="none" xmlns="http://www.w3.org/2000/svg"><path d="M13.5 9h-3v1.125h3V9zM13.5 11.25h-3v1.125h3V11.25z" fill="#878787"/><path d="M15 5.25h-3.75V3c0-.825-.675-1.5-1.5-1.5h-1.5c-.825 0-1.5.675-1.5 1.5v2.25H3c-.825 0-1.5.675-1.5 1.5V15c0 .825.675 1.5 1.5 1.5h12c.825 0 1.5-.675 1.5-1.5V6.75c0-.825-.675-1.5-1.5-1.5zM8.25 3h1.5v3.75h-1.5V3zM15 15H3V6.75h3.75c0 .825.675 1.5 1.5 1.5h1.5c.825 0 1.5-.675 1.5-1.5H15V15z" fill="#878787"/><path d="M6.75 11.25a1.125 1.125 0 1 0 0-2.25 1.125 1.125 0 0 0 0 2.25zM8.31 12.135a3.87 3.87 0 0 0-1.56-.322 3.87 3.87 0 0 0-1.56.322c-.42.18-.69.585-.69 1.043v.322H9v-.322c0-.458-.27-.863-.69-1.043z" fill="#878787"/></svg>